<svg id="Layer_1" data-name="Layer 1" xmlns="http://www.w3.org/2000/svg" viewBox="0 0 135.19 47.93"><defs><style>.cls-1,.cls-2{fill:#3878bd;}.cls-2{font-size:29.97px;font-family:KiwiMaru-Regular, Kiwi Maru;}.cls-3{letter-spacing:-0.04em;}.cls-4{letter-spacing:-0.03em;}</style></defs><path class="cls-1" d="M5,44a.42.42,0,0,1-.09-.29.26.26,0,0,1,.15-.23.3.3,0,0,1,.23-.08.41.41,0,0,1,.25.13,2.67,2.67,0,0,0,.82.71,2.33,2.33,0,0,0,1.15.27,2.15,2.15,0,0,0,.7-.12A1.31,1.31,0,0,0,8.77,44,.87.87,0,0,0,9,43.41a.86.86,0,0,0-.22-.62,1.82,1.82,0,0,0-.59-.38,7,7,0,0,0-.77-.24c-.28-.08-.56-.16-.82-.26a3.15,3.15,0,0,1-.71-.36,1.93,1.93,0,0,1-.5-.53,1.54,1.54,0,0,1-.18-.77,1.58,1.58,0,0,1,.29-.93,1.76,1.76,0,0,1,.78-.63,2.7,2.7,0,0,1,1.12-.22,2.93,2.93,0,0,1,.69.08,2.47,2.47,0,0,1,.71.27,2.05,2.05,0,0,1,.63.51.38.38,0,0,1,.11.26.37.37,0,0,1-.12.27.4.4,0,0,1-.24.07A.26.26,0,0,1,9,39.82a2.15,2.15,0,0,0-.72-.51,2.38,2.38,0,0,0-.89-.16,1.9,1.9,0,0,0-.68.11,1.18,1.18,0,0,0-.54.35.92.92,0,0,0-.21.63.83.83,0,0,0,.26.59,1.8,1.8,0,0,0,.61.37,6.69,6.69,0,0,0,.86.28c.27.07.52.15.77.24a2.35,2.35,0,0,1,.65.34,1.64,1.64,0,0,1,.46.52,1.71,1.71,0,0,1,.17.79,1.58,1.58,0,0,1-.31,1,2,2,0,0,1-.82.61,3.06,3.06,0,0,1-1.15.22,3.34,3.34,0,0,1-1.31-.27A2.81,2.81,0,0,1,5,44Z"/><path class="cls-1" d="M20.93,41.82a3.39,3.39,0,0,1-.43,1.71,3.13,3.13,0,0,1-5.5,0,3.49,3.49,0,0,1-.42-1.71A3.45,3.45,0,0,1,15,40.1a3.18,3.18,0,0,1,1.14-1.19,3.18,3.18,0,0,1,3.23,0A3.15,3.15,0,0,1,20.5,40.1,3.35,3.35,0,0,1,20.93,41.82Zm-.77,0a2.84,2.84,0,0,0-.31-1.36,2.44,2.44,0,0,0-.86-.94,2.43,2.43,0,0,0-2.48,0,2.44,2.44,0,0,0-.86.94,2.85,2.85,0,0,0-.32,1.36,2.81,2.81,0,0,0,.32,1.35,2.44,2.44,0,0,0,.86.94,2.43,2.43,0,0,0,2.48,0,2.44,2.44,0,0,0,.86-.94A2.8,2.8,0,0,0,20.16,41.82Z"/><path class="cls-1" d="M27.06,44.65a.38.38,0,0,1-.65.27.39.39,0,0,1-.1-.27V36.12a.36.36,0,0,1,.11-.26.35.35,0,0,1,.26-.12.34.34,0,0,1,.27.12.33.33,0,0,1,.11.26Z"/><path class="cls-1" d="M37.61,38.66a.33.33,0,0,1,.27.11A.36.36,0,0,1,38,39v3.54a2.47,2.47,0,0,1-.7,1.9,3.09,3.09,0,0,1-3.79,0,2.5,2.5,0,0,1-.69-1.9V39a.36.36,0,0,1,.11-.26.37.37,0,0,1,.28-.11.33.33,0,0,1,.27.11.35.35,0,0,1,.1.26v3.54a1.68,1.68,0,0,0,1.82,1.85,1.67,1.67,0,0,0,1.83-1.85V39a.36.36,0,0,1,.11-.26A.36.36,0,0,1,37.61,38.66Z"/><path class="cls-1" d="M43.31,38.64h2.92a.36.36,0,0,1,.26.11.4.4,0,0,1,.1.26.37.37,0,0,1-.1.25.35.35,0,0,1-.26.1H43.31a.36.36,0,0,1-.26-.11A.34.34,0,0,1,43,39a.33.33,0,0,1,.1-.25A.4.4,0,0,1,43.31,38.64Zm1.29-1.77a.34.34,0,0,1,.27.12.36.36,0,0,1,.11.26v6.3a1.23,1.23,0,0,0,.09.53.55.55,0,0,0,.25.23.8.8,0,0,0,.3.06.48.48,0,0,0,.18,0l.18,0a.27.27,0,0,1,.2.09.34.34,0,0,1,.08.23.35.35,0,0,1-.2.29.92.92,0,0,1-.48.12l-.34,0a1.21,1.21,0,0,1-.46-.14,1,1,0,0,1-.4-.42,1.82,1.82,0,0,1-.17-.86V37.25a.34.34,0,0,1,.12-.26A.34.34,0,0,1,44.6,36.87Z"/><path class="cls-1" d="M52.09,37.66a.62.62,0,0,1-.39-.11.45.45,0,0,1-.13-.35v-.12a.41.41,0,0,1,.14-.35.62.62,0,0,1,.4-.12.55.55,0,0,1,.37.12.47.47,0,0,1,.13.35v.12a.48.48,0,0,1-.13.35A.62.62,0,0,1,52.09,37.66Zm.38,7a.38.38,0,0,1-.38.38.35.35,0,0,1-.27-.11.39.39,0,0,1-.1-.27V38.88a.35.35,0,0,1,.1-.26.39.39,0,0,1,.54,0,.36.36,0,0,1,.11.26Z"/><path class="cls-1" d="M64.11,41.82a3.49,3.49,0,0,1-.42,1.71,3.13,3.13,0,0,1-5.5,0,3.5,3.5,0,0,1-.43-1.71,3.46,3.46,0,0,1,.43-1.72,3.18,3.18,0,0,1,1.14-1.19,3.18,3.18,0,0,1,3.23,0,3.15,3.15,0,0,1,1.13,1.19A3.45,3.45,0,0,1,64.11,41.82Zm-.76,0A3,3,0,0,0,63,40.46a2.44,2.44,0,0,0-.86-.94,2.43,2.43,0,0,0-2.48,0,2.44,2.44,0,0,0-.86.94,2.73,2.73,0,0,0-.32,1.36,2.7,2.7,0,0,0,.32,1.35,2.44,2.44,0,0,0,.86.94,2.43,2.43,0,0,0,2.48,0,2.44,2.44,0,0,0,.86-.94A2.92,2.92,0,0,0,63.35,41.82Z"/><path class="cls-1" d="M72.45,38.47a2.35,2.35,0,0,1,1.32.33,1.89,1.89,0,0,1,.72.9A3.62,3.62,0,0,1,74.7,41v3.69a.38.38,0,0,1-.37.38.38.38,0,0,1-.28-.11.36.36,0,0,1-.11-.27V41a2.63,2.63,0,0,0-.16-.91,1.39,1.39,0,0,0-.53-.66,1.66,1.66,0,0,0-1-.25,2.14,2.14,0,0,0-1,.25,2.09,2.09,0,0,0-.78.66,1.52,1.52,0,0,0-.31.91v3.65a.38.38,0,0,1-.37.38.38.38,0,0,1-.28-.11.4.4,0,0,1-.11-.27V39a.36.36,0,0,1,.11-.26.37.37,0,0,1,.28-.11.33.33,0,0,1,.27.11.35.35,0,0,1,.1.26v1.06l-.28.45a1.56,1.56,0,0,1,.25-.77,2.92,2.92,0,0,1,.6-.67,2.7,2.7,0,0,1,.81-.46A2.36,2.36,0,0,1,72.45,38.47Z"/><path class="cls-1" d="M80.07,44a.55.55,0,0,1-.09-.29.27.27,0,0,1,.16-.23.27.27,0,0,1,.23-.08.36.36,0,0,1,.24.13,2.7,2.7,0,0,0,.83.71,2.29,2.29,0,0,0,1.14.27,2.1,2.1,0,0,0,.7-.12,1.31,1.31,0,0,0,.57-.37.88.88,0,0,0,.23-.62.86.86,0,0,0-.23-.62,1.77,1.77,0,0,0-.58-.38,7.74,7.74,0,0,0-.77-.24c-.29-.08-.56-.16-.83-.26a2.88,2.88,0,0,1-.7-.36,1.79,1.79,0,0,1-.5-.53,1.54,1.54,0,0,1-.18-.77,1.57,1.57,0,0,1,.28-.93,1.88,1.88,0,0,1,.78-.63,2.73,2.73,0,0,1,1.12-.22,2.82,2.82,0,0,1,.69.08,2.64,2.64,0,0,1,.72.27,2.14,2.14,0,0,1,.62.51.34.34,0,0,1,0,.53.37.37,0,0,1-.23.07.28.28,0,0,1-.22-.11,2.05,2.05,0,0,0-.72-.51,2.35,2.35,0,0,0-.89-.16,1.9,1.9,0,0,0-.68.11,1.2,1.2,0,0,0-.53.35.88.88,0,0,0-.22.63.92.92,0,0,0,.26.59,1.86,1.86,0,0,0,.62.37,7.06,7.06,0,0,0,.85.28q.4.1.78.24a2.67,2.67,0,0,1,.65.34,1.5,1.5,0,0,1,.45.52,1.71,1.71,0,0,1,.17.79,1.51,1.51,0,0,1-.31,1,1.89,1.89,0,0,1-.82.61,3,3,0,0,1-1.14.22,3.3,3.3,0,0,1-1.31-.27A2.84,2.84,0,0,1,80.07,44Z"/><text class="cls-2" transform="translate(2.27 32.67)"><tspan class="cls-3">r</tspan><tspan x="14.27" y="0">oll</tspan><tspan class="cls-4" x="53.2" y="0">e</tspan><tspan x="69.92" y="0">r</tspan></text><path class="cls-1" d="M104.89,43.86H89.2c-.5,0-.5,0-.5-.47V39.25c0-.51,0-.51.51-.51h30.4a7.07,7.07,0,0,0,1.36-14c-.38-.07-.77-.08-1.15-.17a2.57,2.57,0,0,1-1.93-3.21,4.27,4.27,0,0,0-1-4A4.53,4.53,0,0,0,110.5,17a2.63,2.63,0,0,1-4.43-1.49,9.67,9.67,0,0,0-7.48-7.9A9.83,9.83,0,0,0,88,12a.58.58,0,0,1-.6.33H82.55c-.31,0-.4,0-.27-.36a14.64,14.64,0,0,1,11.9-9.58,14.94,14.94,0,0,1,15.88,8.49c.13.28.23.34.55.24A9.71,9.71,0,0,1,123,17.89a7.32,7.32,0,0,1,.26,1.74c0,.25.09.35.33.43A12.32,12.32,0,0,1,130.67,26a12.08,12.08,0,0,1-1.35,13.43,12.44,12.44,0,0,1-7.75,4.36,10.81,10.81,0,0,1-2,.12H104.89Z"/></svg>